999
C:\Documents and Settings\Jenn\Desktop\Lightwave Projects\TurboSquid\Objects\Structures\barn.dxf
999
Converted by PolyTrans from Okino Computer Graphics, Inc.
999
Export options: Layer names derived from object names, Uses Polyface Mesh (PFACE) entity.
0
SECTION
2
HEADER
9
$ACADVER
1
AC1008
9
$UCSORG
10
0.0
20
0.0
30
0.0
9
$UCSXDIR
10
1
20
0.0
30
0.0
9
$TILEMODE
70
1
9
$UCSYDIR
10
0.0
20
0.0
30
1
9
$EXTMIN
10
-3.55195
20
5
30
-3.15
9
$EXTMAX
10
4.35195
20
-3.8
30
4.9
0
ENDSEC
0
SECTION
2
TABLES
0
TABLE
2
LTYPE
70
1
0
LTYPE
2
SOLIDLINE
70
64
3
Solid line
72
65
73
0
40
0.0
0
ENDTAB
0
TABLE
2
LAYER
70
1
0
LAYER
2
barn_layer1
70
0
62
252
6
SOLIDLINE
0
ENDTAB
0
ENDSEC
0
SECTION
2
ENTITIES
0
POLYLINE
8
barn_layer1
66
1
70
64
71
72
72
84
62
23
0
VERTEX
8
barn_layer1
10
-3.55195
20
5
30
2.61749
70
192
0
VERTEX
8
barn_layer1
10
-3.55195
20
-3.8
30
2.61749
70
192
0
VERTEX
8
barn_layer1
10
-3.4234
20
5
30
2.46428
70
192
0
VERTEX
8
barn_layer1
10
-3.4234
20
-3.8
30
2.46428
70
192
0
VERTEX
8
barn_layer1
10
-3
20
4.6
30
-3.15
70
192
0
VERTEX
8
barn_layer1
10
-3
20
-3.4
30
-3.15
70
192
0
VERTEX
8
barn_layer1
10
-3
20
4.6
30
2.95
70
192
0
VERTEX
8
barn_layer1
10
-3
20
-3.4
30
2.95
70
192
0
VERTEX
8
barn_layer1
10
-1.40087
20
5
30
4.74424
70
192
0
VERTEX
8
barn_layer1
10
-1.40087
20
-3.8
30
4.74424
70
192
0
VERTEX
8
barn_layer1
10
-1.32919
20
5
30
4.55752
70
192
0
VERTEX
8
barn_layer1
10
-1.32919
20
-3.8
30
4.55752
70
192
0
VERTEX
8
barn_layer1
10
-1.3
20
4.6
30
-3.15
70
192
0
VERTEX
8
barn_layer1
10
-1.3
20
-3.4
30
-3.15
70
192
0
VERTEX
8
barn_layer1
10
-1.3
20
4.6
30
4.55
70
192
0
VERTEX
8
barn_layer1
10
-1.3
20
-3.4
30
4.55
70
192
0
VERTEX
8
barn_layer1
10
-0.8
20
-2.9
30
-3.1
70
192
0
VERTEX
8
barn_layer1
10
-0.8
20
-3.2
30
-3.1
70
192
0
VERTEX
8
barn_layer1
10
-0.8
20
-3.4
30
-3.1
70
192
0
VERTEX
8
barn_layer1
10
-0.8
20
-2.9
30
-0.5
70
192
0
VERTEX
8
barn_layer1
10
-0.8
20
-3.2
30
-0.5
70
192
0
VERTEX
8
barn_layer1
10
-0.8
20
-3.4
30
-0.5
70
192
0
VERTEX
8
barn_layer1
10
-0.799681
20
-3.583
30
1.97625
70
192
0
VERTEX
8
barn_layer1
10
-0.799681
20
-2.717
30
2.07625
70
192
0
VERTEX
8
barn_layer1
10
-0.599681
20
-2.717
30
1.82375
70
192
0
VERTEX
8
barn_layer1
10
-0.599681
20
-3.483
30
1.82375
70
192
0
VERTEX
8
barn_layer1
10
-0.296
20
-2.9
30
1.898
70
192
0
VERTEX
8
barn_layer1
10
-0.296
20
-3.4
30
1.898
70
192
0
VERTEX
8
barn_layer1
10
-0.296
20
-2.9
30
3.302
70
192
0
VERTEX
8
barn_layer1
10
-0.296
20
-3.4
30
3.302
70
192
0
VERTEX
8
barn_layer1
10
0.4
20
4.6
30
-3.15
70
192
0
VERTEX
8
barn_layer1
10
0.4
20
-3.4
30
-3.15
70
192
0
VERTEX
8
barn_layer1
10
0.4
20
-3.4
30
-3.1
70
192
0
VERTEX
8
barn_layer1
10
0.4
20
-3.4
30
-0.5
70
192
0
VERTEX
8
barn_layer1
10
0.4
20
-3.4
30
1.898
70
192
0
VERTEX
8
barn_layer1
10
0.4
20
-3.4
30
3.302
70
192
0
VERTEX
8
barn_layer1
10
0.4
20
5
30
4.7
70
192
0
VERTEX
8
barn_layer1
10
0.4
20
-3.8
30
4.7
70
192
0
VERTEX
8
barn_layer1
10
0.4
20
4.6
30
4.75
70
192
0
VERTEX
8
barn_layer1
10
0.4
20
-3.4
30
4.75
70
192
0
VERTEX
8
barn_layer1
10
0.4
20
5
30
4.9
70
192
0
VERTEX
8
barn_layer1
10
0.4
20
-3.8
30
4.9
70
192
0
VERTEX
8
barn_layer1
10
1.24
20
-2.9
30
1.898
70
192
0
VERTEX
8
barn_layer1
10
1.24
20
-3.4
30
1.898
70
192
0
VERTEX
8
barn_layer1
10
1.24
20
-2.9
30
3.302
70
192
0
VERTEX
8
barn_layer1
10
1.24
20
-3.4
30
3.302
70
192
0
VERTEX
8
barn_layer1
10
1.46647
20
-2.717
30
1.82375
70
192
0
VERTEX
8
barn_layer1
10
1.46647
20
-3.483
30
1.82375
70
192
0
VERTEX
8
barn_layer1
10
1.6
20
-2.9
30
-3.1
70
192
0
VERTEX
8
barn_layer1
10
1.6
20
-3.2
30
-3.1
70
192
0
VERTEX
8
barn_layer1
10
1.6
20
-3.4
30
-3.1
70
192
0
VERTEX
8
barn_layer1
10
1.6
20
-2.9
30
-0.5
70
192
0
VERTEX
8
barn_layer1
10
1.6
20
-3.2
30
-0.5
70
192
0
VERTEX
8
barn_layer1
10
1.6
20
-3.4
30
-0.5
70
192
0
VERTEX
8
barn_layer1
10
1.76647
20
-3.583
30
1.97625
70
192
0
VERTEX
8
barn_layer1
10
1.76647
20
-2.717
30
2.07625
70
192
0
VERTEX
8
barn_layer1
10
2.1
20
4.6
30
-3.15
70
192
0
VERTEX
8
barn_layer1
10
2.1
20
-3.4
30
-3.15
70
192
0
VERTEX
8
barn_layer1
10
2.1
20
4.6
30
4.55
70
192
0
VERTEX
8
barn_layer1
10
2.1
20
-3.4
30
4.55
70
192
0
VERTEX
8
barn_layer1
10
2.12919
20
5
30
4.55752
70
192
0
VERTEX
8
barn_layer1
10
2.12919
20
-3.8
30
4.55752
70
192
0
VERTEX
8
barn_layer1
10
2.20087
20
5
30
4.74424
70
192
0
VERTEX
8
barn_layer1
10
2.20087
20
-3.8
30
4.74424
70
192
0
VERTEX
8
barn_layer1
10
3.8
20
4.6
30
-3.15
70
192
0
VERTEX
8
barn_layer1
10
3.8
20
-3.4
30
-3.15
70
192
0
VERTEX
8
barn_layer1
10
3.8
20
4.6
30
2.95
70
192
0
VERTEX
8
barn_layer1
10
3.8
20
-3.4
30
2.95
70
192
0
VERTEX
8
barn_layer1
10
4.2234
20
5
30
2.46428
70
192
0
VERTEX
8
barn_layer1
10
4.2234
20
-3.8
30
2.46428
70
192
0
VERTEX
8
barn_layer1
10
4.35195
20
5
30
2.61749
70
192
0
VERTEX
8
barn_layer1
10
4.35195
20
-3.8
30
2.61749
70
192
0
VERTEX
8
barn_layer1
10
0
20
0
30
0
70
128
71
5
72
13
73
14
74
6
0
VERTEX
8
barn_layer1
10
0
20
0
30
0
70
128
71
13
72
31
73
32
74
14
0
VERTEX
8
barn_layer1
10
0
20
0
30
0
70
128
71
31
72
57
73
58
74
32
0
VERTEX
8
barn_layer1
10
0
20
0
30
0
70
128
71
57
72
65
73
66
74
58
0
VERTEX
8
barn_layer1
10
0
20
0
30
0
70
128
71
14
72
16
73
8
74
6
0
VERTEX
8
barn_layer1
10
0
20
0
30
0
70
128
71
66
72
68
73
60
74
58
0
VERTEX
8
barn_layer1
10
0
20
0
30
0
70
128
71
65
72
67
73
68
74
66
0
VERTEX
8
barn_layer1
10
0
20
0
30
0
70
128
71
59
72
67
73
65
74
57
0
VERTEX
8
barn_layer1
10
0
20
0
30
0
70
128
71
39
72
59
73
57
74
31
0
VERTEX
8
barn_layer1
10
0
20
0
30
0
70
128
71
15
72
39
73
31
74
13
0
VERTEX
8
barn_layer1
10
0
20
0
30
0
70
128
71
7
72
15
73
13
74
5
0
VERTEX
8
barn_layer1
10
0
20
0
30
0
70
128
71
8
72
7
73
5
74
6
0
VERTEX
8
barn_layer1
10
0
20
0
30
0
70
128
71
16
72
15
73
7
74
8
0
VERTEX
8
barn_layer1
10
0
20
0
30
0
70
128
71
40
72
39
73
15
74
16
0
VERTEX
8
barn_layer1
10
0
20
0
30
0
70
128
71
60
72
59
73
39
74
40
0
VERTEX
8
barn_layer1
10
0
20
0
30
0
70
128
71
68
72
67
73
59
74
60
0
VERTEX
8
barn_layer1
10
0
20
0
30
0
70
128
71
49
72
52
73
20
74
17
0
VERTEX
8
barn_layer1
10
0
20
0
30
0
70
128
71
22
72
19
73
17
74
20
0
VERTEX
8
barn_layer1
10
0
20
0
30
0
70
128
71
54
72
22
73
20
0
VERTEX
8
barn_layer1
10
0
20
0
30
0
70
128
71
54
72
20
73
52
0
VERTEX
8
barn_layer1
10
0
20
0
30
0
70
128
71
49
72
51
73
54
74
52
0
VERTEX
8
barn_layer1
10
0
20
0
30
0
70
128
71
17
72
19
73
33
0
VERTEX
8
barn_layer1
10
0
20
0
30
0
70
128
71
17
72
33
73
51
0
VERTEX
8
barn_layer1
10
0
20
0
30
0
70
128
71
17
72
51
73
49
0
VERTEX
8
barn_layer1
10
0
20
0
30
0
70
128
71
32
72
33
73
19
0
VERTEX
8
barn_layer1
10
0
20
0
30
0
70
128
71
22
72
34
73
35
0
VERTEX
8
barn_layer1
10
0
20
0
30
0
70
128
71
22
72
35
73
28
0
VERTEX
8
barn_layer1
10
0
20
0
30
0
70
128
71
22
72
28
73
30
0
VERTEX
8
barn_layer1
10
0
20
0
30
0
70
128
71
30
72
36
73
40
0
VERTEX
8
barn_layer1
10
0
20
0
30
0
70
128
71
30
72
40
73
16
0
VERTEX
8
barn_layer1
10
0
20
0
30
0
70
128
71
22
72
30
73
16
0
VERTEX
8
barn_layer1
10
0
20
0
30
0
70
128
71
19
72
22
73
16
0
VERTEX
8
barn_layer1
10
0
20
0
30
0
70
128
71
19
72
16
73
14
0
VERTEX
8
barn_layer1
10
0
20
0
30
0
70
128
71
32
72
19
73
14
0
VERTEX
8
barn_layer1
10
0
20
0
30
0
70
128
71
40
72
36
73
46
0
VERTEX
8
barn_layer1
10
0
20
0
30
0
70
128
71
44
72
35
73
34
0
VERTEX
8
barn_layer1
10
0
20
0
30
0
70
128
71
44
72
34
73
54
0
VERTEX
8
barn_layer1
10
0
20
0
30
0
70
128
71
46
72
44
73
54
0
VERTEX
8
barn_layer1
10
0
20
0
30
0
70
128
71
51
72
33
73
32
0
VERTEX
8
barn_layer1
10
0
20
0
30
0
70
128
71
51
72
32
73
58
0
VERTEX
8
barn_layer1
10
0
20
0
30
0
70
128
71
54
72
51
73
58
0
VERTEX
8
barn_layer1
10
0
20
0
30
0
70
128
71
46
72
54
73
58
0
VERTEX
8
barn_layer1
10
0
20
0
30
0
70
128
71
46
72
58
73
60
0
VERTEX
8
barn_layer1
10
0
20
0
30
0
70
128
71
40
72
46
73
60
0
VERTEX
8
barn_layer1
10
0
20
0
30
0
70
128
71
43
72
45
73
29
74
27
0
VERTEX
8
barn_layer1
10
0
20
0
30
0
70
128
71
30
72
28
73
27
74
29
0
VERTEX
8
barn_layer1
10
0
20
0
30
0
70
128
71
46
72
30
73
29
0
VERTEX
8
barn_layer1
10
0
20
0
30
0
70
128
71
46
72
29
73
45
0
VERTEX
8
barn_layer1
10
0
20
0
30
0
70
128
71
43
72
44
73
46
74
45
0
VERTEX
8
barn_layer1
10
0
20
0
30
0
70
128
71
27
72
28
73
35
0
VERTEX
8
barn_layer1
10
0
20
0
30
0
70
128
71
27
72
35
73
44
0
VERTEX
8
barn_layer1
10
0
20
0
30
0
70
128
71
27
72
44
73
43
0
VERTEX
8
barn_layer1
10
0
20
0
30
0
70
128
71
51
72
54
73
22
74
19
0
VERTEX
8
barn_layer1
10
0
20
0
30
0
70
128
71
22
72
21
73
18
74
19
0
VERTEX
8
barn_layer1
10
0
20
0
30
0
70
128
71
54
72
53
73
21
74
22
0
VERTEX
8
barn_layer1
10
0
20
0
30
0
70
128
71
50
72
53
73
54
74
51
0
VERTEX
8
barn_layer1
10
0
20
0
30
0
70
128
71
18
72
50
73
51
74
19
0
VERTEX
8
barn_layer1
10
0
20
0
30
0
70
128
71
21
72
53
73
50
74
18
0
VERTEX
8
barn_layer1
10
0
20
0
30
0
70
128
71
3
72
11
73
12
74
4
0
VERTEX
8
barn_layer1
10
0
20
0
30
0
70
128
71
11
72
37
73
38
74
12
0
VERTEX
8
barn_layer1
10
0
20
0
30
0
70
128
71
12
72
10
73
2
74
4
0
VERTEX
8
barn_layer1
10
0
20
0
30
0
70
128
71
38
72
42
73
10
74
12
0
VERTEX
8
barn_layer1
10
0
20
0
30
0
70
128
71
37
72
41
73
42
74
38
0
VERTEX
8
barn_layer1
10
0
20
0
30
0
70
128
71
9
72
41
73
37
74
11
0
VERTEX
8
barn_layer1
10
0
20
0
30
0
70
128
71
1
72
9
73
11
74
3
0
VERTEX
8
barn_layer1
10
0
20
0
30
0
70
128
71
2
72
1
73
3
74
4
0
VERTEX
8
barn_layer1
10
0
20
0
30
0
70
128
71
10
72
9
73
1
74
2
0
VERTEX
8
barn_layer1
10
0
20
0
30
0
70
128
71
42
72
41
73
9
74
10
0
VERTEX
8
barn_layer1
10
0
20
0
30
0
70
128
71
62
72
61
73
69
74
70
0
VERTEX
8
barn_layer1
10
0
20
0
30
0
70
128
71
38
72
37
73
61
74
62
0
VERTEX
8
barn_layer1
10
0
20
0
30
0
70
128
71
72
72
64
73
62
74
70
0
VERTEX
8
barn_layer1
10
0
20
0
30
0
70
128
71
64
72
42
73
38
74
62
0
VERTEX
8
barn_layer1
10
0
20
0
30
0
70
128
71
42
72
41
73
37
74
38
0
VERTEX
8
barn_layer1
10
0
20
0
30
0
70
128
71
37
72
41
73
63
74
61
0
VERTEX
8
barn_layer1
10
0
20
0
30
0
70
128
71
61
72
63
73
71
74
69
0
VERTEX
8
barn_layer1
10
0
20
0
30
0
70
128
71
69
72
71
73
72
74
70
0
VERTEX
8
barn_layer1
10
0
20
0
30
0
70
128
71
71
72
63
73
64
74
72
0
VERTEX
8
barn_layer1
10
0
20
0
30
0
70
128
71
63
72
41
73
42
74
64
0
VERTEX
8
barn_layer1
10
0
20
0
30
0
70
128
71
25
72
47
73
48
74
26
0
VERTEX
8
barn_layer1
10
0
20
0
30
0
70
128
71
48
72
55
73
23
74
26
0
VERTEX
8
barn_layer1
10
0
20
0
30
0
70
128
71
47
72
56
73
55
74
48
0
VERTEX
8
barn_layer1
10
0
20
0
30
0
70
128
71
24
72
56
73
47
74
25
0
VERTEX
8
barn_layer1
10
0
20
0
30
0
70
128
71
23
72
24
73
25
74
26
0
VERTEX
8
barn_layer1
10
0
20
0
30
0
70
128
71
55
72
56
73
24
74
23
0
SEQEND
0
ENDSEC
0
EOF
